<svg width="233" height="36" viewBox="0 0 233 36" fill="none" xmlns="http://www.w3.org/2000/svg">
<path d="M0.0340909 35V0.0909081H13.8068C16.4545 0.0909081 18.7102 0.59659 20.5739 1.60795C22.4375 2.60795 23.858 4 24.8352 5.78409C25.8239 7.55682 26.3182 9.60227 26.3182 11.9205C26.3182 14.2386 25.8182 16.2841 24.8182 18.0568C23.8182 19.8295 22.3693 21.2102 20.4716 22.1989C18.5852 23.1875 16.3011 23.6818 13.6193 23.6818H4.84091V17.767H12.4261C13.8466 17.767 15.017 17.5227 15.9375 17.0341C16.8693 16.5341 17.5625 15.8466 18.017 14.9716C18.483 14.0852 18.7159 13.0682 18.7159 11.9205C18.7159 10.7614 18.483 9.75 18.017 8.88636C17.5625 8.01136 16.8693 7.33523 15.9375 6.85795C15.0057 6.36932 13.8239 6.125 12.392 6.125H7.41477V35H0.0340909ZM42.4858 35.5114C39.7926 35.5114 37.4744 34.9659 35.5312 33.875C33.5994 32.7727 32.1108 31.2159 31.0653 29.2045C30.0199 27.1818 29.4972 24.7898 29.4972 22.0284C29.4972 19.3352 30.0199 16.9716 31.0653 14.9375C32.1108 12.9034 33.5824 11.3182 35.4801 10.1818C37.3892 9.04545 39.6278 8.47727 42.196 8.47727C43.9233 8.47727 45.5313 8.75568 47.0199 9.3125C48.5199 9.85795 49.8267 10.6818 50.9403 11.7841C52.0653 12.8864 52.9403 14.2727 53.5653 15.9432C54.1903 17.6023 54.5028 19.5455 54.5028 21.7727V23.767H32.3949V19.267H47.6676C47.6676 18.2216 47.4403 17.2955 46.9858 16.4886C46.5313 15.6818 45.9006 15.0511 45.0938 14.5966C44.2983 14.1307 43.3722 13.8977 42.3153 13.8977C41.2131 13.8977 40.2358 14.1534 39.3835 14.6648C38.5426 15.1648 37.8835 15.8409 37.4062 16.6932C36.929 17.5341 36.6847 18.4716 36.6733 19.5057V23.7841C36.6733 25.0795 36.9119 26.1989 37.3892 27.142C37.8778 28.0852 38.5653 28.8125 39.4517 29.3239C40.3381 29.8352 41.3892 30.0909 42.6051 30.0909C43.4119 30.0909 44.1506 29.9773 44.821 29.75C45.4915 29.5227 46.0653 29.1818 46.5426 28.7273C47.0199 28.2727 47.3835 27.7159 47.6335 27.0568L54.3494 27.5C54.0085 29.1136 53.3097 30.5227 52.2528 31.7273C51.2074 32.9205 49.8551 33.8523 48.196 34.5227C46.5483 35.1818 44.6449 35.5114 42.4858 35.5114ZM73.1676 8.81818V14.2727H57.4006V8.81818H73.1676ZM60.9801 2.54545H68.2415V26.9545C68.2415 27.625 68.3438 28.1477 68.5483 28.5227C68.7528 28.8864 69.0369 29.142 69.4006 29.2898C69.7756 29.4375 70.2074 29.5114 70.696 29.5114C71.0369 29.5114 71.3778 29.483 71.7188 29.4261C72.0597 29.358 72.321 29.3068 72.5028 29.2727L73.6449 34.6761C73.2813 34.7898 72.7699 34.9205 72.1108 35.0682C71.4517 35.2273 70.6506 35.3239 69.7074 35.358C67.9574 35.4261 66.4233 35.1932 65.1051 34.6591C63.7983 34.125 62.7813 33.2955 62.054 32.1705C61.3267 31.0455 60.9688 29.625 60.9801 27.9091V2.54545ZM85.3636 35.4943C83.6932 35.4943 82.2045 35.2045 80.8977 34.625C79.5909 34.0341 78.5568 33.1648 77.7955 32.017C77.0455 30.858 76.6705 29.4148 76.6705 27.6875C76.6705 26.233 76.9375 25.0114 77.4716 24.0227C78.0057 23.0341 78.733 22.2386 79.6534 21.6364C80.5739 21.0341 81.6193 20.5795 82.7898 20.2727C83.9716 19.9659 85.2102 19.75 86.5057 19.625C88.0284 19.4659 89.2557 19.3182 90.1875 19.1818C91.1193 19.0341 91.7955 18.8182 92.2159 18.5341C92.6364 18.25 92.8466 17.8295 92.8466 17.2727V17.1705C92.8466 16.0909 92.5057 15.2557 91.8239 14.6648C91.1534 14.0739 90.1989 13.7784 88.9602 13.7784C87.6534 13.7784 86.6136 14.0682 85.8409 14.6477C85.0682 15.2159 84.5568 15.9318 84.3068 16.7955L77.5909 16.25C77.9318 14.6591 78.6023 13.2841 79.6023 12.125C80.6023 10.9545 81.892 10.0568 83.4716 9.43182C85.0625 8.79545 86.9034 8.47727 88.9943 8.47727C90.4489 8.47727 91.8409 8.64773 93.1705 8.98864C94.5114 9.32955 95.6989 9.85795 96.733 10.5739C97.7784 11.2898 98.6023 12.2102 99.2045 13.3352C99.8068 14.4489 100.108 15.7841 100.108 17.3409V35H93.2216V31.3693H93.017C92.5966 32.1875 92.0341 32.9091 91.3295 33.5341C90.625 34.1477 89.7784 34.6307 88.7898 34.983C87.8011 35.3239 86.6591 35.4943 85.3636 35.4943ZM87.4432 30.483C88.5114 30.483 89.4545 30.2727 90.2727 29.8523C91.0909 29.4205 91.733 28.8409 92.1989 28.1136C92.6648 27.3864 92.8977 26.5625 92.8977 25.642V22.8636C92.6705 23.0114 92.358 23.1477 91.9602 23.2727C91.5739 23.3864 91.1364 23.4943 90.6477 23.5966C90.1591 23.6875 89.6705 23.7727 89.1818 23.8523C88.6932 23.9205 88.25 23.983 87.8523 24.0398C87 24.1648 86.2557 24.3636 85.6193 24.6364C84.983 24.9091 84.4886 25.2784 84.1364 25.7443C83.7841 26.1989 83.608 26.767 83.608 27.4489C83.608 28.4375 83.9659 29.1932 84.6818 29.7159C85.4091 30.2273 86.3295 30.483 87.4432 30.483ZM113.003 0.0909081V35H105.741V0.0909081H113.003ZM123.064 35.4432C121.939 35.4432 120.973 35.0455 120.166 34.25C119.371 33.4432 118.973 32.4773 118.973 31.3523C118.973 30.2386 119.371 29.2841 120.166 28.4886C120.973 27.6932 121.939 27.2955 123.064 27.2955C124.155 27.2955 125.109 27.6932 125.928 28.4886C126.746 29.2841 127.155 30.2386 127.155 31.3523C127.155 32.1023 126.962 32.7898 126.575 33.4148C126.2 34.0284 125.706 34.5227 125.092 34.8977C124.479 35.2614 123.803 35.4432 123.064 35.4432ZM147.043 8.81818V14.2727H131.276V8.81818H147.043ZM134.855 2.54545H142.116V26.9545C142.116 27.625 142.219 28.1477 142.423 28.5227C142.628 28.8864 142.912 29.142 143.276 29.2898C143.651 29.4375 144.082 29.5114 144.571 29.5114C144.912 29.5114 145.253 29.483 145.594 29.4261C145.935 29.358 146.196 29.3068 146.378 29.2727L147.52 34.6761C147.156 34.7898 146.645 34.9205 145.986 35.0682C145.327 35.2273 144.526 35.3239 143.582 35.358C141.832 35.4261 140.298 35.1932 138.98 34.6591C137.673 34.125 136.656 33.2955 135.929 32.1705C135.202 31.0455 134.844 29.625 134.855 27.9091V2.54545ZM163.423 35.5114C160.73 35.5114 158.412 34.9659 156.469 33.875C154.537 32.7727 153.048 31.2159 152.003 29.2045C150.957 27.1818 150.435 24.7898 150.435 22.0284C150.435 19.3352 150.957 16.9716 152.003 14.9375C153.048 12.9034 154.52 11.3182 156.418 10.1818C158.327 9.04545 160.565 8.47727 163.134 8.47727C164.861 8.47727 166.469 8.75568 167.957 9.3125C169.457 9.85795 170.764 10.6818 171.878 11.7841C173.003 12.8864 173.878 14.2727 174.503 15.9432C175.128 17.6023 175.44 19.5455 175.44 21.7727V23.767H153.332V19.267H168.605C168.605 18.2216 168.378 17.2955 167.923 16.4886C167.469 15.6818 166.838 15.0511 166.031 14.5966C165.236 14.1307 164.31 13.8977 163.253 13.8977C162.151 13.8977 161.173 14.1534 160.321 14.6648C159.48 15.1648 158.821 15.8409 158.344 16.6932C157.866 17.5341 157.622 18.4716 157.611 19.5057V23.7841C157.611 25.0795 157.849 26.1989 158.327 27.142C158.815 28.0852 159.503 28.8125 160.389 29.3239C161.276 29.8352 162.327 30.0909 163.543 30.0909C164.349 30.0909 165.088 29.9773 165.759 29.75C166.429 29.5227 167.003 29.1818 167.48 28.7273C167.957 28.2727 168.321 27.7159 168.571 27.0568L175.287 27.5C174.946 29.1136 174.247 30.5227 173.19 31.7273C172.145 32.9205 170.793 33.8523 169.134 34.5227C167.486 35.1818 165.582 35.5114 163.423 35.5114ZM192.009 35.5114C189.327 35.5114 187.02 34.9432 185.088 33.8068C183.168 32.6591 181.69 31.0682 180.656 29.0341C179.634 27 179.122 24.6591 179.122 22.0114C179.122 19.3295 179.639 16.9773 180.673 14.9545C181.719 12.9205 183.202 11.3352 185.122 10.1989C187.043 9.05114 189.327 8.47727 191.974 8.47727C194.259 8.47727 196.259 8.89205 197.974 9.72159C199.69 10.5511 201.048 11.7159 202.048 13.2159C203.048 14.7159 203.599 16.4773 203.702 18.5H196.849C196.656 17.1932 196.145 16.142 195.315 15.3466C194.497 14.5398 193.423 14.1364 192.094 14.1364C190.969 14.1364 189.986 14.4432 189.145 15.0568C188.315 15.6591 187.668 16.5398 187.202 17.6989C186.736 18.858 186.503 20.2614 186.503 21.9091C186.503 23.5795 186.73 25 187.185 26.1705C187.651 27.3409 188.304 28.233 189.145 28.8466C189.986 29.4602 190.969 29.767 192.094 29.767C192.923 29.767 193.668 29.5966 194.327 29.2557C194.997 28.9148 195.548 28.4205 195.98 27.7727C196.423 27.1136 196.713 26.3239 196.849 25.4034H203.702C203.588 27.4034 203.043 29.1648 202.065 30.6875C201.099 32.1989 199.764 33.3807 198.06 34.233C196.355 35.0852 194.338 35.5114 192.009 35.5114ZM215.612 19.8636V35H208.351V0.0909081H215.408V13.4375H215.714C216.305 11.892 217.26 10.6818 218.578 9.80682C219.896 8.92045 221.55 8.47727 223.538 8.47727C225.357 8.47727 226.942 8.875 228.294 9.67045C229.658 10.4545 230.714 11.5852 231.464 13.0625C232.226 14.5284 232.601 16.2841 232.589 18.3295V35H225.328V19.625C225.339 18.0114 224.93 16.7557 224.101 15.858C223.283 14.9602 222.135 14.5114 220.658 14.5114C219.669 14.5114 218.794 14.7216 218.033 15.142C217.283 15.5625 216.692 16.1761 216.26 16.983C215.839 17.7784 215.624 18.7386 215.612 19.8636Z" fill="black"/>
</svg>
